<?xml version="1.0" encoding="utf-8" ?>
<svg xmlns="http://www.w3.org/2000/svg" xmlns:xlink="http://www.w3.org/1999/xlink" width="5164" height="3248">
	<path fill="#F4CA9F" d="M1047.94 1009.35C1107.67 1004.52 1177.81 1013.85 1232.12 1029.44C1348 1062.72 1432.61 1133.21 1475.35 1207.09C1587.01 1400.09 1496.16 1617.2 1363.33 1795.94C1438.58 1815.48 1501.96 1842.8 1558.5 1879.66C1700.63 1972.3 1760.7 2113.01 1756.59 2239.52Q1756.43 2248.08 1755.93 2256.64Q1755.43 2265.2 1754.59 2273.75Q1753.76 2282.3 1752.59 2290.84Q1751.42 2299.37 1749.92 2307.88Q1748.42 2316.4 1746.58 2324.88Q1744.74 2333.37 1742.58 2341.83Q1740.41 2350.28 1737.91 2358.7Q1735.41 2367.12 1732.59 2375.5Q1729.76 2383.88 1726.61 2392.21Q1723.45 2400.54 1719.97 2408.82Q1716.49 2417.11 1712.69 2425.33Q1708.89 2433.56 1704.76 2441.72Q1700.64 2449.88 1696.2 2457.98Q1691.76 2466.08 1687 2474.1Q1682.24 2482.13 1677.17 2490.08Q1672.1 2498.03 1666.72 2505.89Q1661.34 2513.76 1655.65 2521.55Q1649.97 2529.33 1643.98 2537.02Q1637.99 2544.71 1631.7 2552.31Q1625.41 2559.91 1618.82 2567.4Q1612.24 2574.9 1605.36 2582.29Q1598.48 2589.69 1591.32 2596.97Q1584.16 2604.26 1576.71 2611.43Q1569.26 2618.6 1561.54 2625.65Q1553.81 2632.71 1545.81 2639.64Q1537.81 2646.57 1529.54 2653.38Q1521.28 2660.18 1512.74 2666.86Q1504.21 2673.53 1495.42 2680.07Q1486.63 2686.61 1477.58 2693.02Q1468.54 2699.42 1459.24 2705.68Q1449.95 2711.94 1440.42 2718.06Q1430.88 2724.17 1421.11 2730.14C1300.14 2802.8 1155.4 2852.35 1003.01 2894.12C961.739 2905.43 912.088 2921.64 866.15 2920.35C836.871 2919.52 812.033 2909.63 792.931 2896.17C748.482 2864.85 729.932 2817.7 734.327 2776.53C738.356 2738.79 757.8 2699.47 802.868 2673.07C844.114 2648.91 906.834 2640.33 957.238 2625.59C1071.43 2592.18 1175.92 2558.65 1271.13 2506.17Q1277.65 2502.45 1284.01 2498.63Q1290.37 2494.8 1296.58 2490.88Q1302.78 2486.95 1308.82 2482.92Q1314.86 2478.89 1320.72 2474.77Q1326.59 2470.64 1332.29 2466.42Q1337.99 2462.2 1343.51 2457.89Q1349.03 2453.58 1354.37 2449.18Q1359.71 2444.78 1364.86 2440.3Q1370.02 2435.81 1374.99 2431.24Q1379.96 2426.67 1384.74 2422.02Q1389.51 2417.37 1394.1 2412.65Q1398.68 2407.92 1403.07 2403.13Q1407.46 2398.33 1411.64 2393.46Q1415.83 2388.59 1419.82 2383.65Q1423.8 2378.72 1427.58 2373.72Q1431.36 2368.72 1434.93 2363.66C1478.27 2302.57 1508.26 2225.64 1467.94 2160.83C1426.2 2093.72 1327.17 2056.09 1215.85 2050.04C1163.69 2047.21 1113.76 2050.17 1064.39 2036.54C1010.17 2021.56 988.645 1991.61 968.434 1958.94C968.284 1999.47 971.564 2040.29 973.956 2080.78Q979.612 2180.38 989.289 2279.85C995.451 2339.34 1004.35 2398.73 1005.96 2458.38C1007.26 2506.34 999.251 2550.13 943.085 2586.05C923.997 2598.25 900.058 2606.78 872.252 2606.62C844.822 2606.45 818.642 2598.25 799.768 2586C769.536 2566.37 754.227 2537.52 745.856 2511.29C737.021 2483.61 735.974 2454.2 732.979 2426.05L719.349 2295.31C691.518 2021.63 694.389 1748.1 694.431 1474.05C677.164 1481.06 659.517 1486.47 638.717 1487.69C614.681 1489.1 591.902 1483.73 573.735 1473.96C527.475 1449.08 502.858 1409.74 497.77 1372.33C486.562 1289.94 554.605 1212.09 636.501 1151.03C741.786 1072.53 883.32 1017.88 1047.94 1009.35ZM1055.44 1280.58C1025.34 1282.11 1000.75 1284.52 972.338 1290.94Q964.345 1430.34 963.704 1569.83C962.393 1664.04 960.838 1758.63 964.795 1852.81C977.999 1818.29 1000.92 1792.68 1030.29 1762.81C1126.76 1665.21 1293.34 1476.16 1249.24 1358.14C1239.62 1332.4 1216.09 1310.9 1180.21 1296.97C1143.28 1282.62 1098.14 1279.04 1055.44 1280.58Z"/>
	<path fill="#FDFDFD" d="M905.796 1331.71C909.044 1332.66 912.658 1333.81 915.165 1335.44C925.216 1342 923.595 1360.63 923.66 1369.28C923.921 1403.78 914.989 1438.57 912.705 1473.11C909.12 1527.28 911.01 1582.12 903.929 1636.1L885.916 1402C884.482 1381.67 882.668 1347.67 905.796 1331.71Z"/>
	<path fill="#FDFDFD" d="M1129.8 1038.55C1142.72 1038.27 1151 1039.05 1162.58 1042.73C1195.23 1053.12 1222.99 1070.84 1250.38 1085.91C1339.6 1134.98 1409.22 1173.95 1447.29 1247.59C1491.55 1333.21 1485.15 1430.95 1439.68 1515.68C1434.23 1525.83 1431.77 1536.15 1424.01 1545.83L1424.07 1542.57C1438.65 1505.84 1453.81 1468.06 1460.88 1430.42C1476.23 1348.61 1458.76 1259.13 1375.09 1193.14C1336.59 1162.77 1255.16 1111.12 1196.73 1099.15C1182.82 1096.3 1168.3 1097.67 1153.98 1096.52C1136.6 1095.13 1120.79 1090.57 1110.54 1081.32C1103.97 1075.39 1100.31 1067.9 1103.11 1060.74C1106.96 1050.86 1116.44 1043.86 1129.8 1038.55Z"/>
	<path fill="#FDFDFD" d="M1376.13 1841.42C1388.71 1841.06 1398.78 1842 1410.29 1845.42C1429.67 1851.18 1446.08 1860.69 1462.64 1869.13C1554.33 1915.91 1622.31 1979.38 1662.25 2049.22C1717.9 2146.52 1741.08 2279.24 1669.05 2374.64L1669.52 2372.2C1684.06 2336.2 1697.95 2301.21 1701.51 2263.94C1712.46 2149.57 1654.72 2009.96 1503.64 1938.27C1487.26 1930.5 1470.17 1922.97 1452.4 1916.49C1424.4 1906.29 1389.21 1899.3 1367.94 1883.4C1359.49 1877.09 1352.63 1868.91 1354.66 1860.42C1356.79 1851.46 1364.77 1846.36 1376.13 1841.42Z"/>
	<path fill="#F4CA9F" d="M2158.73 1302.21C2178.57 1275.97 2198.54 1249.52 2223.95 1225.19C2253.13 1282.24 2291.44 1338.65 2333.76 1392.36C2346.35 1408.35 2380.87 1438.22 2387.29 1452.26C2364 1482.56 2343.22 1519.07 2332.59 1552.11C2353.97 1573.53 2380.4 1600.42 2380.53 1626.02C2381.61 1667.61 2383.14 1747.89 2433.25 1778.46C2441.55 1783.52 2452.79 1786.94 2464.52 1786.7C2476.42 1786.46 2486.32 1782.25 2493.75 1776.65C2501.46 1770.83 2507.35 1763.7 2512.12 1756.77C2527.83 1767.53 2544.91 1779.64 2565.92 1786.27C2583.64 1791.86 2603.43 1792.89 2622.1 1788.56C2702.69 1769.89 2769.05 1656.94 2802.02 1608.95C2794.17 1587.24 2783.84 1565.39 2773.12 1544.16C2784.63 1535.92 2799.84 1528.93 2812.07 1520.85C2851.96 1494.52 2893.14 1465.45 2927.7 1436.2C2935.12 1430.49 2941.38 1423.99 2947.95 1417.88C2965.21 1404.95 2977.7 1387.79 2990.74 1373.05C3030.75 1454.42 3071.13 1537.38 3093.33 1621.47C3176.29 1935.65 3145.95 2441.69 2908.44 2725.68C2843.8 2802.96 2747.56 2886.57 2609.55 2913.94C2538.76 2927.98 2464.83 2920.92 2399.83 2899.47C2227.47 2842.61 2128.54 2695.76 2074.15 2584.06C1939.15 2306.82 1951.07 1965.04 2009.72 1678.34Q2025.2 1603.77 2048.57 1530.02C2054.83 1510.43 2070.25 1482.43 2072.4 1463.7Q2083.75 1436.46 2096.85 1409.53Q2116.44 1369.59 2140.12 1330.53L2158.73 1302.21ZM2242.02 2006.38C2240.16 2135 2241.82 2264.17 2288.58 2390.2C2291.93 2358 2283.4 2319.87 2281.21 2286.93C2276.22 2212.07 2276.01 2139.3 2258.7 2064.91C2254.18 2045.45 2250.14 2025.4 2242.02 2006.38ZM2843.14 1752.33C2839.23 1786.12 2840.23 1820.55 2840.41 1854.44Q2841.67 1934.49 2841.26 2014.54L2839.05 2150.34C2838.67 2174.79 2835.55 2201.13 2840.39 2225.33C2869.17 2077.51 2876.53 1899.87 2843.14 1752.33Z"/>
	<path fill="#FDFDFD" d="M2947.95 1417.88C3017.24 1465.22 3048.9 1684.18 3061.22 1753.44C3071 1808.42 3082.46 1863.67 3087.22 1918.93Q3091.29 1973.59 3087.72 2028.27Q3085.84 2059.2 3081.99 2090.06Q3078.14 2120.92 3072.33 2151.66Q3066.53 2182.4 3058.77 2212.97Q3051.01 2243.53 3041.31 2273.88C3038.06 2284.43 3036.82 2299.85 3029.56 2309.12C3030.91 2277.14 3044.6 2244.14 3051.78 2212.43Q3066.92 2140.62 3073.98 2068.31C3085.14 1953.27 3069.31 1841.7 3041.79 1728.03C3028.52 1673.25 3014.11 1619.4 2992.15 1565.68C2979.85 1535.58 2964.67 1506.05 2949.13 1476.56C2942.1 1463.22 2933.45 1449.76 2927.7 1436.2C2935.12 1430.49 2941.38 1423.99 2947.95 1417.88Z"/>
	<path d="M2247.21 1914.1C2260.5 1930.03 2263.28 1955.97 2268.82 1973.96C2288.81 2038.86 2304.42 2103.89 2310.08 2169.95C2315.22 2229.93 2312.85 2289.96 2318.74 2350.01Q2323.4 2393.78 2329.19 2437.49C2331.26 2453.54 2337.12 2472.89 2333.51 2488.82Q2319.82 2464.64 2308.57 2439.96Q2297.33 2415.28 2288.58 2390.2C2291.93 2358 2283.4 2319.87 2281.21 2286.93C2276.22 2212.07 2276.01 2139.3 2258.7 2064.91C2254.18 2045.45 2250.14 2025.4 2242.02 2006.38C2243.44 1975.59 2244.44 1944.87 2247.21 1914.1Z"/>
	<path d="M2810.35 2338.22C2801.35 2305.02 2805.47 2267.3 2805.36 2233.52L2806.75 2029.32C2807.38 1934.83 2803.24 1840.11 2808.63 1745.67C2810.27 1717.02 2808.88 1684.46 2818.7 1656.46C2828.78 1687.19 2840.95 1721.01 2843.14 1752.33C2839.23 1786.12 2840.23 1820.55 2840.41 1854.44Q2841.67 1934.49 2841.26 2014.54L2839.05 2150.34C2838.67 2174.79 2835.55 2201.13 2840.39 2225.33C2831.96 2262.74 2825.52 2301.64 2810.35 2338.22Z"/>
	<path fill="#FDFDFD" d="M2333.61 1415.88C2347.92 1427.09 2311.76 1494.04 2304.22 1510.3C2265.18 1594.54 2230.97 1679.23 2208.55 1765.93C2172 1907.32 2164.11 2098.31 2191.73 2241.37C2202.99 2299.68 2221.89 2356.94 2238.38 2414.69C2245.29 2438.85 2253.57 2463.39 2257.73 2487.78L2258.14 2490.3C2240.72 2459.97 2233.44 2425.25 2223.72 2393.54C2177.91 2244.13 2163.91 2093.17 2167.43 1941.24C2168.94 1875.77 2172.65 1810.61 2183.95 1745.47C2200.18 1651.93 2227.44 1561.76 2282.02 1473.85C2293.71 1455.03 2307.83 1428.91 2333.61 1415.88Z"/>
	<path fill="#AC5000" d="M2263.39 1801.47C2263.4 1818.34 2270.51 1835.86 2275.19 1852.44Q2286.49 1891.13 2295.77 1930.03C2322.59 2044.68 2351.42 2160.7 2363.85 2276.4Q2370.82 2347.38 2371.77 2418.5C2372.46 2447.06 2366.12 2530.93 2378.75 2553.51C2358.1 2534.98 2345.16 2510.17 2333.51 2488.82C2337.12 2472.89 2331.26 2453.54 2329.19 2437.49Q2323.4 2393.78 2318.74 2350.01C2312.85 2289.96 2315.22 2229.93 2310.08 2169.95C2304.42 2103.89 2288.81 2038.86 2268.82 1973.96C2263.28 1955.97 2260.5 1930.03 2247.21 1914.1Q2253.27 1857.67 2263.39 1801.47Z"/>
	<path fill="#FE7F00" d="M2332.59 1552.11C2353.97 1573.53 2380.4 1600.42 2380.53 1626.02C2381.61 1667.61 2383.14 1747.89 2433.25 1778.46C2441.55 1783.52 2452.79 1786.94 2464.52 1786.7C2476.42 1786.46 2486.32 1782.25 2493.75 1776.65C2501.46 1770.83 2507.35 1763.7 2512.12 1756.77C2527.83 1767.53 2544.91 1779.64 2565.92 1786.27C2583.64 1791.86 2603.43 1792.89 2622.1 1788.56C2702.69 1769.89 2769.05 1656.94 2802.02 1608.95C2807.95 1624.71 2814.54 1640.48 2818.7 1656.46C2808.88 1684.46 2810.27 1717.02 2808.63 1745.67C2803.24 1840.11 2807.38 1934.83 2806.75 2029.32L2805.36 2233.52C2805.47 2267.3 2801.35 2305.02 2810.35 2338.22C2784.74 2428.58 2718.32 2574.02 2594.91 2628.74C2571.83 2638.98 2545.29 2645.11 2516.81 2642.08C2469.12 2637.01 2437.5 2612.8 2412.05 2589.08C2400.89 2578.68 2385.06 2565.31 2378.75 2553.51C2366.12 2530.93 2372.46 2447.06 2371.77 2418.5Q2370.82 2347.38 2363.85 2276.4C2351.42 2160.7 2322.59 2044.68 2295.77 1930.03Q2286.49 1891.13 2275.19 1852.44C2270.51 1835.86 2263.4 1818.34 2263.39 1801.47C2278.33 1717.5 2298.25 1633.9 2332.59 1552.11Z"/>
	<path fill="#FE7F00" d="M1917.15 499.293Q1917.89 497.139 1918.71 494.995C1946.23 424.073 1994.08 356.965 2067.8 300.095C2094.72 279.323 2125.53 260.193 2154.45 240.5C2193.58 213.856 2233.52 185.722 2283.58 167.05C2391.88 126.656 2441.63 172.299 2536.09 170.075C2590.08 168.804 2636.11 142.216 2691.43 151.555C2818.63 173.024 2925.96 305.412 2979.46 375.981C2994.9 396.337 3006.8 420.754 3026.04 439.516C3038.58 451.748 3057.3 459.389 3074.57 468.697C3098.14 481.392 3117.07 495.826 3132.17 512.903C3234.92 629.06 3223.9 892.329 3167.42 1017.35C3155.98 1042.68 3135.02 1084.97 3095.02 1098.13C3083.14 1102.04 3069.4 1102.54 3056.72 1099.82C3031.42 1094.39 3018.74 1077.1 3007.68 1063.11C3002.88 1080.52 2994.23 1099.63 2994.94 1117.29C2995.57 1133.32 3008.62 1150.74 3013.33 1166.73C3033.7 1235.96 3036.9 1307.58 2990.74 1373.05C2977.7 1387.79 2965.21 1404.95 2947.95 1417.88C2941.38 1423.99 2935.12 1430.49 2927.7 1436.2C2893.14 1465.45 2851.96 1494.52 2812.07 1520.85C2799.84 1528.93 2784.63 1535.92 2773.12 1544.16C2783.84 1565.39 2794.17 1587.24 2802.02 1608.95C2769.05 1656.94 2702.69 1769.89 2622.1 1788.56C2603.43 1792.89 2583.64 1791.86 2565.92 1786.27C2544.91 1779.64 2527.83 1767.53 2512.12 1756.77C2507.35 1763.7 2501.46 1770.83 2493.75 1776.65C2486.32 1782.25 2476.42 1786.46 2464.52 1786.7C2452.79 1786.94 2441.55 1783.52 2433.25 1778.46C2383.14 1747.89 2381.61 1667.61 2380.53 1626.02C2380.4 1600.42 2353.97 1573.53 2332.59 1552.11C2343.22 1519.07 2364 1482.56 2387.29 1452.26C2380.87 1438.22 2346.35 1408.35 2333.76 1392.36C2291.44 1338.65 2253.13 1282.24 2223.95 1225.19C2198.54 1249.52 2178.57 1275.97 2158.73 1302.21L2140.12 1330.53Q2116.44 1369.59 2096.85 1409.53Q2083.75 1436.46 2072.4 1463.7C2066.65 1446.25 2063.73 1428.06 2059.61 1410.42C2052.29 1379.07 2044.35 1347.73 2037.89 1316.31C2032.42 1289.69 2028.7 1262.93 2021.99 1236.41C2017.79 1219.77 2008.37 1203.58 2001.09 1187.39C1993.09 1169.59 1987.05 1151.2 1981.53 1133.04C1975.36 1112.71 1972.41 1073.83 1959.5 1056.58C1957.99 1057.57 1956.35 1058.52 1955.35 1059.77C1953.51 1062.06 1953.64 1064.42 1954.72 1066.81C1964.93 1089.28 1968.7 1108.25 1953.43 1130.65C1934.92 1157.79 1895.64 1177.05 1853.04 1187.98C1822.61 1195.79 1788.02 1196.05 1757.9 1187.51C1714.93 1175.33 1689.43 1149.53 1673.43 1122.79C1649.33 1082.53 1642.46 1037.55 1637.8 994.85C1624.75 875.439 1634.99 739.21 1715.01 628.654C1757.34 570.178 1819.8 522.39 1917.15 499.293Z"/>
	<path fill="#AC5000" d="M2717.86 751.352C2723.83 748.575 2733.21 743.097 2740.99 743.29C2749.16 743.492 2754.12 746.785 2758.69 750.657C2789.29 776.592 2815.19 823.088 2836.06 853.672C2872.31 906.79 2913.48 961.648 2940.51 1016.86C2945.15 1026.33 2947.91 1035.6 2948.32 1045.54C2904.34 992.153 2855.38 940.154 2816.7 885.106C2799.38 860.441 2783.57 834.9 2768.9 809.557C2759.27 792.93 2753.17 773.235 2737.77 758.379C2732.06 752.868 2727.45 752.539 2717.86 751.352Z"/>
	<path d="M2075.66 408.858C2157.29 370.969 2248.75 332.639 2355.39 342.745C2379.73 345.051 2422.31 350.131 2437.69 363.228C2444.64 369.15 2445.6 376.37 2443.33 383.424C2442.5 385.998 2440.81 387.454 2438.01 389.324C2409.84 397.711 2357.93 376.657 2325.4 376.152C2298.59 375.736 2267.22 381.495 2242.14 387.09C2200.59 396.361 2159.41 409.785 2123.1 425.49C2107.36 432.297 2092.63 441.164 2076.18 447.134C2069.88 449.42 2060.92 451.385 2053.67 450.241C2050.28 449.707 2047.7 448.469 2044.99 447.171C2045.45 443.201 2043.93 439.047 2044.03 435.018C2044.32 422.716 2063.05 416.478 2075.66 408.858Z"/>
	<path d="M2151.21 436.388C2186 434.904 2215.93 442.25 2242.8 455.741C2303.35 486.142 2348.24 539.837 2356.66 588.053C2363.12 625.04 2352.69 668.132 2314.33 697.715C2286.07 719.505 2250.97 726.891 2208.19 729.798C2172.96 732.917 2133.89 727.225 2103.1 716.253C2056.59 699.682 2029.24 671.662 2015.57 639.801C1994.5 590.733 2003.28 532.155 2044.39 487.97C2069.34 461.154 2103.26 444.212 2151.21 436.388Z"/>
	<path fill="#FDFDFD" d="M2157.44 471.246C2182.14 469.567 2197.48 471.159 2217.72 480.822C2265.43 503.597 2311.74 553.612 2320.07 591.108C2325.81 616.93 2319.75 647.144 2293.5 668.138C2271.63 685.625 2243.23 690.944 2209.65 693.43C2178.7 693.908 2148.52 692.681 2120.27 683.933C2085.49 673.158 2062.9 653.519 2051.17 630.762C2032.91 595.378 2038.3 552.271 2065.38 519.189C2085.71 494.356 2115.08 479.66 2157.44 471.246Z"/>
	<path d="M2201.72 592.858C2214.77 593.633 2224.58 596.45 2233.46 602.722C2241.58 608.459 2243.84 615.947 2242.94 623.415C2241.38 636.406 2232.7 641.982 2217.85 650.018C2213.83 652.038 2211.67 652.318 2206.58 652.593C2203.38 651.479 2200.55 650.396 2198.11 648.64C2186.14 640.014 2181.21 626.033 2182.8 614.85C2184.2 604.978 2190.06 599.229 2201.72 592.858Z"/>
	<path d="M1917.15 499.293Q1917.89 497.139 1918.71 494.995C1946.23 424.073 1994.08 356.965 2067.8 300.095C2094.72 279.323 2125.53 260.193 2154.45 240.5C2193.58 213.856 2233.52 185.722 2283.58 167.05C2391.88 126.656 2441.63 172.299 2536.09 170.075C2590.08 168.804 2636.11 142.216 2691.43 151.555C2818.63 173.024 2925.96 305.412 2979.46 375.981C2994.9 396.337 3006.8 420.754 3026.04 439.516C3038.58 451.748 3057.3 459.389 3074.57 468.697C3098.14 481.392 3117.07 495.826 3132.17 512.903C3234.92 629.06 3223.9 892.329 3167.42 1017.35C3155.98 1042.68 3135.02 1084.97 3095.02 1098.13C3083.14 1102.04 3069.4 1102.54 3056.72 1099.82C3031.42 1094.39 3018.74 1077.1 3007.68 1063.11C3002.88 1080.52 2994.23 1099.63 2994.94 1117.29C2995.57 1133.32 3008.62 1150.74 3013.33 1166.73C3033.7 1235.96 3036.9 1307.58 2990.74 1373.05C2977.7 1387.79 2965.21 1404.95 2947.95 1417.88C2941.38 1423.99 2935.12 1430.49 2927.7 1436.2C2893.14 1465.45 2851.96 1494.52 2812.07 1520.85C2799.84 1528.93 2784.63 1535.92 2773.12 1544.16C2783.84 1565.39 2794.17 1587.24 2802.02 1608.95C2769.05 1656.94 2702.69 1769.89 2622.1 1788.56C2603.43 1792.89 2583.64 1791.86 2565.92 1786.27C2544.91 1779.64 2527.83 1767.53 2512.12 1756.77C2507.35 1763.7 2501.46 1770.83 2493.75 1776.65C2486.32 1782.25 2476.42 1786.46 2464.52 1786.7C2452.79 1786.94 2441.55 1783.52 2433.25 1778.46C2383.14 1747.89 2381.61 1667.61 2380.53 1626.02C2380.4 1600.42 2353.97 1573.53 2332.59 1552.11C2343.22 1519.07 2364 1482.56 2387.29 1452.26C2380.87 1438.22 2346.35 1408.35 2333.76 1392.36C2291.44 1338.65 2253.13 1282.24 2223.95 1225.19C2216.09 1208.28 2182.2 1163.42 2195.81 1148.14C2197.51 1146.22 2199.52 1146.28 2202.57 1145.59C2214.67 1147.46 2217.02 1152 2223.02 1158.51C2244.21 1181.52 2261.27 1206.55 2280.58 1230.25C2351.75 1317.62 2453.02 1441.01 2583.81 1497.83C2564.68 1484.24 2543.7 1470.79 2528.43 1455.33C2487.75 1414.14 2444.78 1328.47 2438.42 1280.97C2431.6 1230.01 2449.03 1177.54 2503.14 1138.04C2579.79 1082.09 2656.82 1097.64 2760.58 1093.23C2807.69 1091.23 2848.85 1094.89 2885.71 1115.49C2945.07 1148.64 2971.86 1209.29 2978.82 1257.22C2981.67 1276.84 2980.31 1296.55 2981.94 1316.21C3022.77 1158.73 2919 1072.97 2815.09 942.78C2787.04 907.632 2764.97 870.958 2742.65 834.274C2732.53 817.632 2719.54 800.75 2711.97 783.602C2705.89 769.816 2706.66 763.736 2717.86 751.352C2727.45 752.539 2732.06 752.868 2737.77 758.379C2753.17 773.235 2759.27 792.93 2768.9 809.557C2783.57 834.9 2799.38 860.441 2816.7 885.106C2855.38 940.154 2904.34 992.153 2948.32 1045.54C2952.91 1054.85 2960.52 1064.09 2966.73 1073.05C2987.74 1008.53 3000.13 943.175 3020.82 878.704C3039.55 820.309 3073.53 762.948 3076.71 702.946Q3072.19 711.518 3067.34 720.018C3056.88 738.087 3038.7 755.055 3009.85 762.982C2983.35 770.261 2953.66 768.237 2927.22 761.973C2879.56 750.676 2842.64 727.989 2822.38 698.692C2797.76 663.108 2797.84 620.886 2820.79 584.986C2836.99 559.661 2867.64 533.213 2909.01 522.68C2931.72 516.896 2956.47 516.363 2979.15 522.519C3049.63 541.646 3054.63 593.203 3078.75 631.933C3079.03 632.387 3079.33 632.836 3079.62 633.288C3074.31 599.841 3066.66 561.356 3041.85 531.301C3035.66 530.643 3027.89 530.124 3022.42 528.111C3013.63 524.873 3004.77 518.316 2997.15 513.874C2971.84 499.128 2945.72 484.403 2913.61 475.751C2862.38 461.942 2822.11 483.494 2801.87 474.582C2796.5 472.218 2792.52 468.764 2792.04 464.55C2791.44 459.328 2796.78 453.534 2802.01 449.752C2817.78 438.348 2838.35 436.221 2861.09 435.502C2924.05 433.509 2967.6 457.808 3011.21 482.567C2968.67 418.551 2913.37 335.243 2846.42 280.19C2784.34 251.492 2743.21 225.572 2661.19 233.577C2610.9 238.485 2554.51 251.256 2503.98 244.607C2476.36 240.973 2451.42 231.109 2422.64 230.998C2398.27 230.903 2373.09 236.169 2350.69 241.8C2248.46 267.498 2170.4 318.697 2106.86 373.692C2096.43 382.722 2076.96 397.678 2075.66 408.858C2063.05 416.478 2044.32 422.716 2044.03 435.018C2043.93 439.047 2045.45 443.201 2044.99 447.171L2041.27 446.813C2026.88 460.341 2018.41 477.474 2010.03 492.865C1945.4 611.596 1956.88 753.452 1972.43 876.564C1977.48 916.512 1992.79 973.63 1989.59 1010.91C2001.66 1080.49 2024.5 1192.85 2083.83 1251.83C2103.71 1271.59 2130.13 1287.47 2158.73 1302.21L2140.12 1330.53Q2116.44 1369.59 2096.85 1409.53Q2083.75 1436.46 2072.4 1463.7C2066.65 1446.25 2063.73 1428.06 2059.61 1410.42C2052.29 1379.07 2044.35 1347.73 2037.89 1316.31C2032.42 1289.69 2028.7 1262.93 2021.99 1236.41C2017.79 1219.77 2008.37 1203.58 2001.09 1187.39C1993.09 1169.59 1987.05 1151.2 1981.53 1133.04C1975.36 1112.71 1972.41 1073.83 1959.5 1056.58C1957.99 1057.57 1956.35 1058.52 1955.35 1059.77C1953.51 1062.06 1953.64 1064.42 1954.72 1066.81C1964.93 1089.28 1968.7 1108.25 1953.43 1130.65C1934.92 1157.79 1895.64 1177.05 1853.04 1187.98C1822.61 1195.79 1788.02 1196.05 1757.9 1187.51C1714.93 1175.33 1689.43 1149.53 1673.43 1122.79C1649.33 1082.53 1642.46 1037.55 1637.8 994.85C1624.75 875.439 1634.99 739.21 1715.01 628.654C1757.34 570.178 1819.8 522.39 1917.15 499.293Z"/>
	<path fill="#AC5000" d="M2064.07 1284.25C2083.86 1300.58 2110.56 1321.1 2140.12 1330.53Q2116.44 1369.59 2096.85 1409.53C2087.86 1395.95 2087.09 1377.98 2083.55 1363.39L2064.07 1284.25Z"/>
	<path fill="#AC5000" d="M2332.59 1552.11C2343.22 1519.07 2364 1482.56 2387.29 1452.26C2392.74 1458.68 2399.66 1463.86 2407.07 1469.37C2398.06 1502.59 2390.42 1535.72 2386.01 1569.31C2383.63 1587.44 2386.09 1608.47 2380.53 1626.02C2380.4 1600.42 2353.97 1573.53 2332.59 1552.11Z"/>
	<path fill="#AC5000" d="M3070.32 506.366C3105.52 530.274 3129.97 563.031 3138.72 595.061L3135.25 596.35L3135.64 598.224C3154.41 693.107 3111.59 787.208 3072.69 877.879C3061.87 903.113 3053.54 931.231 3037.87 955.28C3042.94 914.899 3059.99 874.93 3074.99 835.683C3120.59 716.296 3139.24 626.551 3070.32 506.366Z"/>
	<path fill="#A42933" d="M2425.58 1485.58C2439.49 1493.84 2451.79 1505.81 2463.82 1515.34C2460.14 1529.39 2454.57 1544.56 2455.71 1558.8C2456.16 1564.41 2457.12 1569.7 2463.85 1573.6C2465.14 1573.03 2466.6 1572.57 2467.72 1571.87C2480.07 1564.17 2480.94 1539.86 2482.85 1529.03C2495.84 1537.54 2509.17 1545.58 2523.16 1553.44C2523.26 1607.85 2520.71 1662.65 2505.93 1716.36C2501.64 1729.93 2495 1749.47 2479 1759.39C2473.28 1762.94 2465.53 1764.81 2457.42 1764.01C2449.03 1763.18 2442.65 1759.37 2438.15 1755.09C2380.21 1700 2407.42 1549.77 2425.58 1485.58Z"/>
	<path fill="#FDFDFD" d="M2927.32 555.151Q2932.21 554.753 2937.13 554.558C2958.07 553.828 2976.14 558.138 2991.49 567.051C3029.5 589.126 3044.24 632.502 3044.98 663.768C3045.44 682.858 3041.79 706.24 3018.83 720.211C3002.53 730.135 2985.53 730.891 2964.14 730.492C2953.51 729.432 2942.29 728.192 2932.09 726.024C2897.25 718.624 2869.4 701.551 2853.94 680.794C2836.14 656.899 2835.51 628.604 2850.37 604.042C2865.16 579.589 2890.21 565.522 2927.32 555.151Z"/>
	<path d="M2910.79 630.799C2912.12 630.893 2913.44 630.967 2914.76 631.08C2924.46 631.912 2931.96 635.529 2937.25 640.572C2945.96 648.876 2948.04 658.834 2944.67 668.471C2941.62 677.211 2935.92 680.978 2924.28 685.799C2915.36 683.183 2908.03 680.683 2901.69 675.821C2892.7 668.924 2888.3 660.722 2889.85 651.802C2891.55 642.024 2899.14 636.828 2910.79 630.799Z"/>
	<path fill="#AC5000" d="M1730.68 1134.21C1725.51 1130.48 1721.4 1126.38 1717.49 1122.08C1659.81 1058.61 1665.31 898.997 1676.91 825.3Q1678.94 811.485 1681.86 797.733Q1684.78 783.981 1688.57 770.313Q1692.37 756.646 1697.03 743.086Q1701.7 729.526 1707.23 716.095C1739.12 641.067 1796.99 574.336 1906.33 534.643C1899.54 560.232 1899.12 585.778 1893.86 611.356C1893.12 602.204 1893.85 593.561 1895.11 584.455C1854.84 615.003 1818.17 651.862 1793.27 688.321C1718.23 798.188 1698.87 947.647 1716.32 1065.75Q1721.77 1100.12 1730.68 1134.21Z"/>
	<path fill="#FE7F00" d="M3037.87 955.28C3053.54 931.231 3061.87 903.113 3072.69 877.879C3111.59 787.208 3154.41 693.107 3135.64 598.224L3135.25 596.35L3138.72 595.061C3184.3 706.913 3182.24 831.501 3153.37 944.916C3144.36 980.341 3133.16 1019.59 3103.88 1050.77C3098.45 1056.54 3090.53 1063.49 3079.57 1065.28C3071.75 1066.56 3063.69 1064.6 3057.58 1061.58C3039.48 1052.62 3034 1029.46 3021.79 1016.77C3026.05 996.32 3030.74 975.413 3037.87 955.28Z"/>
	<path fill="#AC5000" d="M2545.85 1561.43C2561.66 1568.11 2577.22 1574.45 2594.86 1579.07C2686.52 1603.07 2703.66 1562.3 2773.12 1544.16C2783.84 1565.39 2794.17 1587.24 2802.02 1608.95C2769.05 1656.94 2702.69 1769.89 2622.1 1788.56C2603.43 1792.89 2583.64 1791.86 2565.92 1786.27C2544.91 1779.64 2527.83 1767.53 2512.12 1756.77C2547.28 1699.77 2543.95 1622.39 2545.85 1561.43Z"/>
	<path fill="#AC5000" d="M1989.59 1010.91C1975.29 975.255 1972.11 933.393 1964.98 896.552C1941.76 776.696 1909.9 651.629 1945.38 531.533Q1947.74 523.385 1950.54 515.293Q1953.35 507.201 1956.6 499.175Q1959.85 491.15 1963.55 483.201Q1967.24 475.251 1971.38 467.388Q1975.51 459.524 1980.08 451.756Q1984.64 443.988 1989.64 436.325Q1994.63 428.661 2000.04 421.112Q2005.46 413.563 2011.29 406.137C2066.06 336.818 2176.64 252.693 2278.24 209.188C2400.75 156.735 2436.36 212.901 2542.78 205.899C2588.67 202.879 2636.54 181.085 2682.54 187.415C2748.03 196.427 2812.29 246.574 2846.42 280.19C2784.34 251.492 2743.21 225.572 2661.19 233.577C2610.9 238.485 2554.51 251.256 2503.98 244.607C2476.36 240.973 2451.42 231.109 2422.64 230.998C2398.27 230.903 2373.09 236.169 2350.69 241.8C2248.46 267.498 2170.4 318.697 2106.86 373.692C2096.43 382.722 2076.96 397.678 2075.66 408.858C2063.05 416.478 2044.32 422.716 2044.03 435.018C2043.93 439.047 2045.45 443.201 2044.99 447.171L2041.27 446.813C2026.88 460.341 2018.41 477.474 2010.03 492.865C1945.4 611.596 1956.88 753.452 1972.43 876.564C1977.48 916.512 1992.79 973.63 1989.59 1010.91Z"/>
	<path fill="#FE7F00" d="M1895.11 584.455C1893.85 593.561 1893.12 602.204 1893.86 611.356C1892.53 744.867 1923.39 876.966 1951.15 1009.02C1944.5 1019.16 1937.46 1029.27 1931.28 1039.53C1919.33 1029.73 1907.13 1020.26 1893.51 1011.36C1878.86 1001.79 1794.49 951.689 1779.33 950.653C1774.59 950.329 1773.29 951.463 1769.42 952.904C1764.04 958.668 1762.03 965.365 1764.94 971.926C1780.25 1006.43 1965.78 1060.41 1920.15 1115.07C1905.64 1132.45 1866.66 1149.13 1836.98 1154.49C1811.12 1159.17 1782.47 1158.24 1758.83 1149.72C1748.51 1146 1737.57 1140.35 1730.68 1134.21Q1721.77 1100.12 1716.32 1065.75C1698.87 947.647 1718.23 798.188 1793.27 688.321C1818.17 651.862 1854.84 615.003 1895.11 584.455Z"/>
	<path fill="#F4CA9F" d="M3816.32 1031.63Q3837.21 1031.48 3858.09 1032Q3878.97 1032.52 3899.78 1033.71Q3920.59 1034.9 3941.28 1036.75Q3961.96 1038.61 3982.47 1041.12C4194.71 1066.98 4372.57 1138.12 4493.72 1250.72C4722.53 1463.35 4718.35 1763.5 4644.14 2005.71C4551.75 2307.26 4336.64 2632.17 3918.12 2810.4Q3892.11 2821.77 3865.05 2832.14Q3837.99 2842.5 3809.99 2851.82C3759.34 2868.69 3596.06 2913.18 3545.6 2918.46C3531.91 2919.89 3518.28 2918.84 3505.17 2916.09C3468.51 2908.43 3442.14 2889.03 3425.29 2867.93C3390.91 2824.87 3387.22 2767.67 3411.35 2722.23C3431.22 2684.81 3466.94 2661.09 3522.4 2643.63C3513.84 2598.53 3513.99 2551.33 3511.44 2505.94Q3504.05 2375.27 3501.91 2244.53Q3498.73 2028.01 3504.11 1811.51Q3509.49 1595.01 3523.43 1378.66Q3517.69 1379.02 3511.93 1379.22C3482.98 1380.19 3457.28 1372.9 3436.01 1360.8C3389.61 1334.41 3370.5 1293.54 3368.13 1255.32C3364.87 1202.73 3390.6 1154.77 3447.79 1115.99C3542.72 1051.62 3682.59 1034.61 3816.32 1031.63ZM3819.7 1305.94C3815.72 1306.15 3808.1 1305.72 3805.6 1307.76C3801.9 1310.8 3801.1 1314.6 3800.64 1318.31C3798.63 1334.47 3799.5 1351.3 3798.35 1367.58Q3792.66 1451.31 3789.16 1535.08Q3779.42 1739.85 3773.86 1944.67Q3771.65 2048.62 3772.68 2152.58Q3774.41 2281.81 3781.08 2410.98C3783.81 2462.94 3785.94 2515.11 3792.38 2566.95C3908.51 2519.43 4000.5 2458.31 4082.19 2388.29C4140.23 2336.25 4191.57 2282.7 4234.11 2224.97C4362.5 2050.72 4453.78 1794.62 4400.73 1603.15C4374.46 1508.3 4300.67 1424.5 4173.64 1368.91C4067.53 1322.47 3947.19 1306.39 3819.7 1305.94Z"/>
	<path fill="#FDFDFD" d="M3731.03 1337.94C3731.71 1338.3 3732.46 1338.62 3733.07 1339.02C3754.3 1353.1 3752.54 1390.54 3753.08 1408.92C3754.26 1449.31 3747.35 1489.58 3742.26 1529.79Q3735.82 1583.75 3732.27 1637.82C3726.01 1725.93 3730.65 1814.35 3723.32 1902.33L3722.73 1907.24C3718.14 1806.43 3720.89 1705.21 3718.3 1604.32C3716.49 1534.09 3706.41 1462.33 3713.66 1392.28C3715.68 1372.83 3719.83 1356.13 3731.03 1337.94Z"/>
	<path fill="#FDFDFD" d="M3815.88 1075.98C3897.7 1069.54 4042.06 1106.13 4119.53 1126.73C4178.41 1142.38 4239.78 1161.5 4291.45 1185.19C4393.34 1231.92 4471.09 1304.62 4519.26 1377.42C4526.82 1388.84 4528.53 1401.7 4536.1 1413.04C4546 1427.88 4548.99 1446.59 4551.98 1462.53C4545.61 1454.8 4543.89 1442.1 4540.67 1433.34C4537.11 1418.57 4528.83 1403.37 4520.73 1389.36C4459.61 1283.65 4350.23 1210.28 4189.1 1163.44C4122.15 1143.98 4049.97 1131.1 3975.87 1130.3C3924.03 1129.75 3836.4 1146.12 3792.45 1132.15C3779.31 1127.97 3765.11 1120.67 3761.15 1111.36C3758.37 1104.84 3760.86 1098.2 3766.81 1092.69C3778.92 1081.47 3795.92 1078.46 3815.88 1075.98Z"/>
</svg>
