<?xml version="1.0" encoding="UTF-8"?>
<svg width="32" height="32" viewBox="0 0 32 32" fill="none" xmlns="http://www.w3.org/2000/svg">
  <circle cx="16" cy="16" r="16" fill="#2775CA"/>
  <path d="M16.5 7V8.83333C19.3333 9.05556 21.5 10.8889 21.7222 13.7222H24C23.7778 9.61111 20.6111 6.44444 16.5 6.22222V4H15.2778V6.22222C11.1667 6.44444 8 9.61111 7.77778 13.7222H10.0556C10.2778 10.8889 12.4444 9.05556 15.2778 8.83333V7H16.5ZM21.7222 18.2778C21.5 21.1111 19.3333 22.9444 16.5 23.1667V25H15.2778V23.1667C12.4444 22.9444 10.2778 21.1111 10.0556 18.2778H7.77778C8 22.3889 11.1667 25.5556 15.2778 25.7778V28H16.5V25.7778C20.6111 25.5556 23.7778 22.3889 24 18.2778H21.7222ZM15.8889 21.1111C18.1667 21.1111 20 19.5 20 16.5C20 13.5 18.1667 11.8889 15.8889 11.8889C13.6111 11.8889 11.7778 13.5 11.7778 16.5C11.7778 19.5 13.6111 21.1111 15.8889 21.1111Z" fill="white"/>
</svg> 